<svg width="258" height="258" viewBox="0 0 258 258" fill="none" xmlns="http://www.w3.org/2000/svg">
<path d="M4 254H254C221.03 220.967 129 178.925 129 197.694C129 240.826 82.559 245.264 40.2137 249.311L40.2129 249.311C39.4046 249.388 38.5979 249.465 37.7929 249.542C25.7183 250.701 14.0585 251.887 4 254Z" fill="#E3C4AD"/>
<path d="M254 9C254 6.23858 251.761 4 249 4H129L191.5 129H249C251.761 129 254 126.761 254 124V9Z" fill="#A07250"/>
<path fill-rule="evenodd" clip-rule="evenodd" d="M129 4L4 254C14.0585 251.887 25.7183 250.701 37.7929 249.542C38.5979 249.465 39.4046 249.388 40.2129 249.311L40.2137 249.311C82.559 245.264 129 240.826 129 197.694C129 178.925 221.03 220.967 254 254L191.5 129L129 4ZM129 147.939C139.46 147.939 147.939 139.46 147.939 129C147.939 118.54 139.46 110.061 129 110.061C118.54 110.061 110.061 118.54 110.061 129C110.061 139.46 118.54 147.939 129 147.939Z" fill="#DCA780"/>
<path d="M129 4L4 254M129 4H249C251.761 4 254 6.23858 254 9V124C254 126.761 251.761 129 249 129H191.5M129 4L191.5 129M254 254H4M254 254C221.03 220.967 129 178.925 129 197.694C129 240.826 82.559 245.264 40.2137 249.311L40.2129 249.311C39.4046 249.388 38.5979 249.465 37.7929 249.542C25.7183 250.701 14.0585 251.887 4 254M254 254L191.5 129M147.939 129C147.939 139.46 139.46 147.939 129 147.939C118.54 147.939 110.061 139.46 110.061 129C110.061 118.54 118.54 110.061 129 110.061C139.46 110.061 147.939 118.54 147.939 129Z" stroke="#664100" stroke-width="8" stroke-miterlimit="1"/>
</svg>
